<?xml version="1.0" encoding="utf-8"?>
<!-- Generator: Adobe Illustrator 22.1.0, SVG Export Plug-In . SVG Version: 6.00 Build 0)  -->
<svg version="1.1" xmlns="http://www.w3.org/2000/svg" xmlns:xlink="http://www.w3.org/1999/xlink" x="0px" y="0px"
	 viewBox="0 0 1366 768" style="enable-background:new 0 0 1366 768;" xml:space="preserve">
<style type="text/css">
	.st0{opacity:0.1;fill:#0000FF;}
	.st1{fill:#662D91;stroke:#1B1464;stroke-width:3;stroke-miterlimit:10;}
	.st2{fill:#C3996B;}
	.st3{fill:#6D6E70;}
	.st4{fill:#231F20;stroke:#231F20;stroke-miterlimit:10;}
	.st5{fill:#231F20;}
	.st6{fill:none;stroke:#231F20;stroke-linecap:round;stroke-miterlimit:10;}
	.st7{fill:none;stroke:#231F20;stroke-miterlimit:10;}
	.st8{fill:#231F20;stroke:#231F20;stroke-linecap:round;stroke-miterlimit:10;}
	.st9{fill:#C1272D;stroke:#1B1464;stroke-miterlimit:10;}
	.st10{opacity:0.25;fill:#662D91;stroke:#1B1464;stroke-width:3;stroke-miterlimit:10;}
	.st11{fill:none;}
	.st12{fill:#1B1464;}
	.st13{font-family:'VampiroOne-Regular';}
	.st14{font-size:68.3516px;}
</style>
<g id="Layer_1">
	<rect x="-5" class="st0" width="1375" height="779"/>
</g>
<g id="Layer_2">
	<g>
		<polygon class="st1" points="280.5,591.5 376.2,426.1 376.2,297.6 441.8,240.2 441.8,144.5 508.8,91.2 574.4,132.2 574.4,240.2 
			633.2,277.1 633.2,434.3 678.3,434.3 678.3,277.1 737.1,236.1 737.1,124 810.9,91.2 886.1,119.9 886.1,244.3 927.1,281.2 
			927.1,452.1 1055.6,591.5 810.9,591.5 865.6,476.7 869.7,305.8 835.5,260.7 831.4,165 778.1,165 774,240.2 719.3,297.6 774,472.6 
			521.1,472.6 592.2,297.6 537.5,268.9 537.5,173.2 484.2,169.1 484.2,248.4 425.4,309.9 429.5,430.2 521.1,591.5 		"/>
		<g>
			<polygon class="st2" points="442.8,332.5 445,324.7 439.8,330.9 			"/>
			<polygon class="st3" points="447.3,319.7 449.5,311.9 444.4,318.1 			"/>
			<g>
				<g>
					<polygon class="st4" points="445.3,347.2 448.2,317.3 423.5,321.3 444.2,314.3 422,308.6 444.6,310.6 426.4,298.5 447.2,309.1 
						449.4,313.5 449.9,324 					"/>
				</g>
				<polygon class="st4" points="445.3,347.2 448.2,317.3 419.2,322.3 444.2,314.3 419.3,306.7 444.6,310.6 422.8,294.9 
					447.2,309.1 449.4,313.5 449.9,324 				"/>
				<g>
					<g id="XMLID_18_">
						<g>
							<path class="st5" d="M419,322.5L419,322.5C419,322.5,419,322.5,419,322.5L419,322.5z"/>
							<path class="st5" d="M421,322.2l-2,0.4C419.4,322.2,420.1,322,421,322.2z"/>
							<path class="st5" d="M421,322.2l27.1-5l-2.7,27.4c-0.7-3.1-4.5-8.4-10-13.5C429.8,325.9,424.1,322.5,421,322.2z"/>
							<path class="st5" d="M445.1,346.6l0.2-2C445.5,345.4,445.5,346.1,445.1,346.6z"/>
							<path class="st5" d="M445.1,346.6C445.1,346.6,445.1,346.6,445.1,346.6L445.1,346.6L445.1,346.6z"/>
						</g>
						<g>
							<polyline class="st6" points="419,322.5 419,322.5 419,322.5 421,322.2 448.1,317.1 445.3,344.6 445.1,346.6 445.1,346.6 
								445.1,346.6 							"/>
							<path class="st6" d="M419,322.5C419,322.5,419,322.5,419,322.5c0.5-0.4,1.1-0.5,2-0.4c3.2,0.4,8.8,3.8,14.3,8.9
								c5.5,5.1,9.4,10.4,10,13.5c0.2,0.8,0.1,1.5-0.2,2c0,0,0,0,0,0"/>
						</g>
					</g>
				</g>
				<g id="XMLID_17_">
					<g>
						<path class="st5" d="M444,314.7l-24.8,7.6c2-1.1,3.5-4.2,3.5-7.8c0-3.6-1.4-6.6-3.4-7.8L444,314.7z"/>
					</g>
					<g>
						<polyline class="st7" points="419.4,306.7 444,314.7 419.2,322.3 						"/>
						<path class="st6" d="M419.4,306.7c2,1.2,3.4,4.2,3.4,7.8c0,3.6-1.5,6.6-3.5,7.8"/>
					</g>
				</g>
				<g id="XMLID_16_">
					<g>
						<path class="st5" d="M444.5,310.6l-25.3-3.9l0.1-0.4c1.9,0,3.9-1.5,4.8-3.9c1.1-2.8,0.5-5.9-1.4-7.3l0-0.1L444.5,310.6z"/>
					</g>
					<g>
						<polyline class="st7" points="422.8,295 422.8,294.9 444.5,310.6 419.2,306.7 419.3,306.3 						"/>
						<path class="st6" d="M422.8,295c1.9,1.4,2.5,4.5,1.4,7.3c-1,2.4-2.9,3.9-4.8,3.9"/>
					</g>
				</g>
			</g>
			<g>
				<g>
					<polygon class="st4" points="449.7,350.8 478.3,341.9 479.4,367 482,345.3 492.1,365.9 485.6,344.1 501.1,359.5 486.6,341.3 
						481.8,340 471.4,341.6 					"/>
				</g>
				<polygon class="st4" points="449.7,350.8 478.3,341.9 479.3,371.4 482,345.3 494.5,368.1 485.6,344.1 505.4,362.3 486.6,341.3 
					481.8,340 471.4,341.6 				"/>
				<g>
					<g id="XMLID_15_">
						<g>
							<path class="st5" d="M479.1,371.7L479.1,371.7C479.1,371.6,479.1,371.6,479.1,371.7L479.1,371.7z"/>
							<path class="st5" d="M479.1,369.6l0,2C479.4,371.1,479.3,370.4,479.1,369.6z"/>
							<path class="st5" d="M479.1,369.6l-0.5-27.6l-26.3,8.2c3.2,0,9.2,2.7,15.3,7.1C473.6,361.8,478,366.6,479.1,369.6z"/>
							<path class="st5" d="M450.3,350.9l1.9-0.6C451.3,350.3,450.7,350.5,450.3,350.9z"/>
							<path class="st5" d="M450.3,350.9L450.3,350.9L450.3,350.9C450.3,350.9,450.3,350.9,450.3,350.9z"/>
						</g>
						<g>
							<polyline class="st6" points="479.1,371.7 479.1,371.7 479.1,371.6 479.1,369.6 478.5,342 452.2,350.3 450.3,350.9 
								450.3,350.9 450.3,350.9 							"/>
							<path class="st6" d="M479.1,371.7C479.1,371.6,479.1,371.6,479.1,371.7c0.3-0.5,0.2-1.2,0-2c-1-3-5.5-7.8-11.6-12.2
								c-6.1-4.4-12.1-7.1-15.3-7.1c-0.9,0-1.5,0.2-1.9,0.6c0,0,0,0,0,0"/>
						</g>
					</g>
				</g>
				<g id="XMLID_14_">
					<g>
						<path class="st5" d="M481.7,345.5l-2.4,25.8c0.7-2.2,3.4-4.2,6.9-5c3.5-0.8,6.8,0,8.3,1.7L481.7,345.5z"/>
					</g>
					<g>
						<polyline class="st7" points="494.5,368.1 481.7,345.5 479.3,371.4 						"/>
						<path class="st6" d="M494.5,368.1c-1.6-1.7-4.8-2.5-8.3-1.7c-3.5,0.8-6.2,2.8-6.9,5"/>
					</g>
				</g>
				<g id="XMLID_13_">
					<g>
						<path class="st5" d="M485.6,344.3l8.9,24l0.4-0.2c-0.4-1.9,0.7-4.1,2.9-5.5c2.5-1.7,5.7-1.7,7.5-0.1l0.1,0L485.6,344.3z"/>
					</g>
					<g>
						<polyline class="st7" points="505.3,362.4 505.4,362.3 485.6,344.3 494.6,368.2 494.9,368 						"/>
						<path class="st6" d="M505.3,362.4c-1.8-1.5-4.9-1.5-7.5,0.1c-2.2,1.4-3.2,3.6-2.9,5.5"/>
					</g>
				</g>
			</g>
			
				<ellipse transform="matrix(0.6501 -0.7599 0.7599 0.6501 -101.3737 463.5377)" class="st8" cx="452.6" cy="341.8" rx="12.5" ry="11.4"/>
			<g>
				<g>
					<g>
						<polygon class="st8" points="462.9,313.3 458.3,324.4 465.7,325 						"/>
					</g>
					<polygon class="st5" points="461.1,325 462.6,317.1 464.4,324.9 					"/>
				</g>
				<g>
					<polygon class="st8" points="479.8,327.3 467.8,327.9 470.5,334.8 					"/>
					<polygon class="st5" points="468.5,330.7 476.3,328.6 470,333.6 					"/>
				</g>
				<circle class="st8" cx="462.4" cy="331.8" r="8.6"/>
				
					<ellipse transform="matrix(0.6318 -0.7752 0.7752 0.6318 -87.9674 480.3009)" class="st8" cx="461.6" cy="332.7" rx="2.6" ry="2"/>
				<circle class="st8" cx="465.5" cy="332.6" r="0.8"/>
				
					<ellipse transform="matrix(0.6318 -0.7752 0.7752 0.6318 -87.2819 479.7646)" class="st8" cx="461.3" cy="331.8" rx="0.6" ry="0.4"/>
				
					<ellipse transform="matrix(0.6318 -0.7752 0.7752 0.6318 -87.6042 481.0796)" class="st8" cx="462.6" cy="332.7" rx="0.7" ry="0.4"/>
				<circle class="st8" cx="460.4" cy="328.7" r="0.8"/>
				<line class="st8" x1="460" y1="333" x2="461.5" y2="334.3"/>
			</g>
		</g>
		<path class="st9" d="M870,342.3c-2.3-0.8-4.6-2.1-6.4-3.8c-0.6-0.6-1.3-1.3-1.6-2.1c-0.3-0.8-0.3-1.8,0.3-2.5
			c0.7-0.8,1.8-1.1,2.9-1.1c0.7,0,1.5,0.1,2.2,0.2c0.6,0.1,1.1,0.2,1.6,0.6c0.4,0.4,0.5,0.9,0.3,1.4c0.5-1.6,0-3.5-1-4.8
			c-1-1.4-2.5-2.4-4-3.1c-1.7-0.8-3.6-1.4-5.4-1.4c-0.8,0-1.6,0.1-2.3,0.5c-2.1,1-2.8,3.6-2.9,6c-0.1,2.1,0.3,4.5,1.9,5.9
			c0.6,0.5,1.3,0.8,1.9,1.2c1.8,0.9,3.7,1.8,5.6,2.4c0.9,0.3,1.9,0.6,2.9,0.7c0.8,0.1,2-0.1,2.7,0.3c-2.7,0.1-5.2,0.4-7.7,1.5
			c-0.6,0.3-1.3,0.6-1.8,1c-1.2,1-1.8,2.5-2.1,4c-0.3,1.7-0.2,3.6,0.9,4.9c1.1,1.2,2.8,1.7,4.4,1.6c2.3-0.2,4.6-1.3,6-3.2
			c1.4-1.9,2-4.3,1.6-6.6c0.2,0.8,0.1,1.6-0.3,2.3c-0.4,0.7-0.9,1.3-1.6,1.8c-1.1,0.9-2.5,1.5-3.9,1.5c-0.6,0-1.3-0.2-1.6-0.6
			c-0.2-0.2-0.3-0.5-0.3-0.8c-0.4-1.9,0.4-4,1.8-5.4C865.8,343.1,868.1,342.4,870,342.3z"/>
		<polygon class="st9" points="868.7,347.3 927.1,349.9 927.1,337.9 868.7,334.7 		"/>
		<polyline class="st9" points="927.1,349.5 929.8,371.4 935.3,370 927.1,337.2 		"/>
		<path class="st10" d="M744.6,446.9c-2.6,49.8-8.6,104.6-45.1,138.6c-47.9,44.7-126.1,32.4-184.2,2.1c-28.3-14.8-56.4-35.1-67-65.2
			s5.2-70.7,36.8-75.3c7.8,55.7,63.3,100.3,119.4,95.9c20.1-1.6,40.9-9.6,52.1-26.3c7.9-11.8,10.1-26.3,12-40.3
			c11.5-84.1,18.9-168.8,22.3-253.6c-43.8-1.1-87.5-8.9-128.9-23.2c-7.1-6.8-3.1-19.8,5.2-25.2c8.2-5.4,18.7-5.6,28.5-6.1
			c122.2-7.1,227.9-101.9,350.4-102c-2.9,36.7-0.9,73.9,6,110.1c-3.3-17.3-176.1-0.1-195.3,26c-18.2,24.8-8,72-8.1,100.2
			C748.4,350.7,747,398.8,744.6,446.9z"/>
		<rect x="668.4" y="592.1" class="st11" width="326.4" height="120.9"/>
		<text transform="matrix(1 0 0 1 668.3901 640.8535)" class="st12 st13 st14">Design</text>
	</g>
</g>
</svg>
