<?xml version="1.0" encoding="utf-8"?>
<!-- Generator: Adobe Illustrator 22.1.0, SVG Export Plug-In . SVG Version: 6.00 Build 0)  -->
<svg version="1.1" id="Layer_1" xmlns="http://www.w3.org/2000/svg" xmlns:xlink="http://www.w3.org/1999/xlink" x="0px" y="0px"
	 viewBox="0 0 1280 1024" style="enable-background:new 0 0 1280 1024;" xml:space="preserve">
<style type="text/css">
	.st0{opacity:0.4;fill:#29ABE2;stroke:#1B1464;stroke-width:13;stroke-miterlimit:10;}
	.st1{fill:#F2F2F2;}
	.st2{fill:url(#SVGID_1_);}
	.st3{fill:url(#SVGID_2_);}
	.st4{fill:url(#SVGID_3_);}
	.st5{font-family:'BodoniSvtyTwoSCITCTT-Book';}
	.st6{font-size:65px;}
	.st7{font-family:'MyriadPro-Regular';}
	.st8{font-size:12px;}
</style>
<circle class="st0" cx="666.5" cy="501.5" r="463"/>
<g>
	<path class="st1" d="M325,744h-6c-6.6,0-12-5.4-12-12V272c0-6.6,5.4-12,12-12h6c6.6,0,12,5.4,12,12v460
		C337,738.6,331.6,744,325,744z"/>
</g>
<g>
	<path class="st1" d="M1023,744h-3c-6.6,0-12-5.4-12-12V272c0-6.6,5.4-12,12-12h3c6.6,0,12,5.4,12,12v460
		C1035,738.6,1029.6,744,1023,744z"/>
</g>
<g>
	<linearGradient id="SVGID_1_" gradientUnits="userSpaceOnUse" x1="337" y1="430.5" x2="1008" y2="430.5">
		<stop  offset="0" style="stop-color:#FF3159"/>
		<stop  offset="0.2978" style="stop-color:#FFFFFF"/>
		<stop  offset="0.6824" style="stop-color:#FF2A54"/>
		<stop  offset="1" style="stop-color:#FFFFFF"/>
	</linearGradient>
	<path class="st2" d="M996,444H349c-6.6,0-12-5.4-12-12v-3c0-6.6,5.4-12,12-12h647c6.6,0,12,5.4,12,12v3
		C1008,438.6,1002.6,444,996,444z"/>
</g>
<g>
	<linearGradient id="SVGID_2_" gradientUnits="userSpaceOnUse" x1="337" y1="634.5" x2="1008" y2="634.5">
		<stop  offset="0" style="stop-color:#FF3159"/>
		<stop  offset="0.2978" style="stop-color:#FFFFFF"/>
		<stop  offset="0.6824" style="stop-color:#FF2A54"/>
		<stop  offset="1" style="stop-color:#FFFFFF"/>
	</linearGradient>
	<path class="st3" d="M996,648H349c-6.6,0-12-5.4-12-12v-3c0-6.6,5.4-12,12-12h647c6.6,0,12,5.4,12,12v3
		C1008,642.6,1002.6,648,996,648z"/>
</g>
<g>
	<linearGradient id="SVGID_3_" gradientUnits="userSpaceOnUse" x1="337" y1="532.5" x2="1008" y2="532.5">
		<stop  offset="0" style="stop-color:#FF3159"/>
		<stop  offset="0.2978" style="stop-color:#FFFFFF"/>
		<stop  offset="0.6824" style="stop-color:#FF2A54"/>
		<stop  offset="1" style="stop-color:#FFFFFF"/>
	</linearGradient>
	<path class="st4" d="M996,546H349c-6.6,0-12-5.4-12-12v-3c0-6.6,5.4-12,12-12h647c6.6,0,12,5.4,12,12v3
		C1008,540.6,1002.6,546,996,546z"/>
</g>
<text transform="matrix(1 0 0 1 357.7246 249.9712)"><tspan x="0" y="0" class="st5 st6">Horse Jumping Eligbility</tspan><tspan x="624.8" y="0" class="st7 st8"> </tspan></text>
<text transform="matrix(1 0 0 1 516.7246 808.9712)"><tspan x="0" y="0" class="st5 st6">Calculator</tspan><tspan x="303" y="0" class="st7 st8"> </tspan></text>
</svg>
