<?xml version="1.0" ?><svg id="Layer_1" style="enable-background:new 0 0 50 50;" version="1.1" viewBox="0 0 50 50" xml:space="preserve" xmlns="http://www.w3.org/2000/svg" xmlns:xlink="http://www.w3.org/1999/xlink"><style type="text/css">
	.st0{fill:#1DA1F2;}
</style><path class="st0" d="M43.0476074,14.354187c-0.0325928-0.0460815-0.0562134-0.0983887-0.104248-0.132019  c-0.1630859-0.1152344-0.3789063-0.1206055-0.5498047-0.0170898c-0.0037842,0.0026855-0.2489014,0.1500244-0.6348267,0.3286133  c-0.3081665,0.1426392-0.7041016,0.3046875-1.1532593,0.4321289c-0.0400391,0.0112305-0.0791016,0.0224609-0.1181641,0.0332031  c0.1396484-0.1445313,0.2861328-0.2958984,0.4355469-0.4492188c0.5915527-0.6067505,0.8778076-1.1660767,1.0212402-1.6155396  c0.1743164-0.5463867,0.1335449-0.9274292,0.1223145-0.9962769c-0.0095825-0.0581665-0.0444946-0.1040039-0.0727539-0.1533813  c-0.0610962-0.1068726-0.1464844-0.1978149-0.2680664-0.2372437c-0.1777344-0.0595703-0.3759766-0.0097656-0.5068359,0.1206055  c-0.0040283,0.0036011-0.3439331,0.3222046-1.277832,0.7553101c-0.1988525,0.0922241-0.4151001,0.1877441-0.6713867,0.2886353  c-0.3760376,0.1478882-0.7200317,0.2394409-1.0358276,0.3091431c-0.4986572,0.1100464-0.9086914,0.1505737-1.1233521,0.1586304  c-0.0789795-0.0720825-0.1637573-0.1356201-0.2453003-0.2039795c-0.2018433-0.1691895-0.4107056-0.3267822-0.6270142-0.4725952  c-0.2871094-0.1935425-0.5834351-0.3706055-0.8925781-0.5215454c-0.2550049-0.1245117-0.5181885-0.2299805-0.7856445-0.3244629  c-0.361145-0.1276245-0.7302856-0.2339478-1.1092529-0.3048096c-0.324585-0.060791-0.6559448-0.0925293-0.9898071-0.1101685  c-0.133606-0.0070801-0.2664795-0.0184937-0.4011841-0.0184937c-0.3681641,0-0.7272949,0.0356445-1.0814209,0.0870361  c-0.5131226,0.0745239-1.0085449,0.2002563-1.4828491,0.3733521c-2.0795288,0.7589111-3.7283325,2.4077759-4.4871826,4.4873047  c-0.1730957,0.4743652-0.2988892,0.9697876-0.3733521,1.4829102c-0.0513306,0.3538818-0.0869141,0.7127686-0.0869141,1.0806274  c0,0.1318359,0.0169067,0.2641602,0.0239868,0.3963623c0.0090332,0.1689453,0.010437,0.3377686,0.0307007,0.5064697  c-0.1644897-0.0109863-0.3206787-0.0385132-0.4829712-0.0541382c-0.4246826-0.0409546-0.8441162-0.0909424-1.2529297-0.1611328  c-0.3131104-0.053772-0.6206665-0.1164551-0.9240723-0.1855469c-0.3816528-0.0869141-0.7522583-0.1877441-1.117981-0.2960815  c-0.2828979-0.0838013-0.562561-0.1696167-0.8355103-0.2645874c-0.3500977-0.1217651-0.6972656-0.2463379-1.0304565-0.383667  c-0.2633667-0.1085205-0.5141602-0.2261963-0.7666016-0.3427124c-0.3258667-0.1503906-0.640686-0.3056641-0.9476929-0.4664307  c-0.2425537-0.1270752-0.484314-0.2533569-0.7147217-0.3850708c-0.3042603-0.1738892-0.6033325-0.3496094-0.8856812-0.5283813  c-0.232666-0.1472778-0.4481812-0.2957764-0.6655273-0.4440918c-0.2897339-0.1976318-0.564209-0.3933105-0.8256836-0.5884399  c-0.2175903-0.1623535-0.4240112-0.3208008-0.6213379-0.4782104c-0.2786255-0.222229-0.5360107-0.435791-0.7727661-0.6412964  c-0.2127686-0.1847534-0.4078369-0.3588257-0.5854492-0.5239258c-0.2832031-0.2631836-0.5289917-0.5012817-0.718689-0.6953735  c-0.347168-0.3551025-0.5391235-0.5796509-0.5491943-0.5916748c-0.1728516-0.2070313-0.4794922-0.2387695-0.6904297-0.074707  c-0.1201172,0.0934448-0.9364014,0.8095093-1.0665894,2.9724731c-0.0247192,0.4112549-0.0216064,0.8793335,0.0128784,1.4011841  c0.020874,0.3158569,0.0523071,0.6491699,0.1005249,1.0089111c0.0050049,0.0374146,0.0074463,0.0707397,0.0127563,0.1086426  c0.0518799,0.3691406,0.1411133,0.7143555,0.2532349,1.0394287c0.0940552,0.272522,0.2139893,0.5195923,0.338501,0.7610474  c0.1640015,0.3178711,0.3430786,0.6119995,0.538269,0.8757935c0.1647949,0.2226563,0.3328857,0.421936,0.5037842,0.605957  l-0.0826416,0.0826416c-0.3186646-0.1021118-0.598999-0.2141724-0.7982788-0.3114014  c-0.2495728-0.1218262-0.3934937-0.2150879-0.3964233-0.217041c-0.1542969-0.1025391-0.3544922-0.1118164-0.5175781-0.0205078  c-0.1630859,0.0898438-0.2626953,0.262207-0.2587891,0.4482422c0.0007324,0.0354004,0.0116577,0.3696899,0.0928955,0.8691406  c0.0424194,0.2606812,0.1119385,0.5721436,0.2024536,0.9072876c0.0900269,0.333374,0.2003784,0.6862793,0.3557739,1.0582886  c0.1021729,0.2446289,0.2206421,0.4934082,0.3574219,0.7422485c0.1408081,0.2560425,0.2998047,0.5115967,0.482666,0.7614136  c0.0248413,0.0339355,0.0517578,0.0599365,0.0767822,0.0932617c0.1633301,0.2172852,0.3309937,0.4182739,0.5008545,0.6085205  c0.2324829,0.260376,0.4673462,0.4970093,0.7037354,0.7102661c0.203186,0.1833496,0.4034424,0.3461304,0.6029663,0.4974976  c0.2891235,0.2194214,0.5722656,0.4168701,0.8381348,0.5758667c0.0119629,0.0071411,0.0253906,0.0172729,0.0372925,0.024353  c-0.0235596-0.0003052-0.0372314-0.0014648-0.0598145-0.0018311c-0.6517334-0.0109863-0.9002075-0.0621338-0.901123-0.0621338  c-0.1689453-0.046875-0.3457031-0.0004883-0.4716797,0.1176758c-0.1259766,0.1176758-0.1826172,0.2924805-0.1484375,0.4619141  c0.0060425,0.031311,0.0690918,0.3255005,0.2481079,0.7556763c0.0892334,0.2145386,0.2176514,0.4660645,0.3741455,0.7356567  c0.1542358,0.2655029,0.3424072,0.5460205,0.5773926,0.8366699c0.1543579,0.190918,0.3314209,0.3818359,0.5261841,0.5735474  c0.2254639,0.2219238,0.4769897,0.4397583,0.7628784,0.6511841c0.045105,0.0333862,0.0797729,0.0690918,0.1265259,0.1020508  c0.1871338,0.132019,0.3575439,0.2332764,0.5346069,0.3463745c0.3137207,0.2005005,0.6105957,0.3754272,0.8910522,0.5229492  c0.2633667,0.1385498,0.5106201,0.2580566,0.7427979,0.3568115c0.3668823,0.1559448,0.7072754,0.2818604,0.9907227,0.3598022  c-0.5501709,0.3496704-1.3895874,0.7816162-2.5187378,1.1682129c-0.1716919,0.0587769-0.3312988,0.1195068-0.517395,0.1755371  c-0.3359985,0.1012573-0.678833,0.1883545-1.0219116,0.2641602c-0.5783691,0.1277466-1.1559448,0.2213135-1.7045288,0.2904663  c-0.4353638,0.0549316-0.850647,0.0944824-1.2318726,0.1223755c-0.5999146,0.0439453-1.1131592,0.0605469-1.4794922,0.0654907  c-0.3690186,0.0050049-0.5912476-0.0009155-0.5993042-0.0007935c-0.21875-0.0200195-0.4150391,0.1264648-0.4882813,0.3325195  c-0.0722656,0.2055664-0.0039063,0.434082,0.1699219,0.5654297c0.0016479,0.0012207,0.0094604,0.006897,0.0118408,0.008667  c0.0599365,0.0450439,0.3516235,0.2572021,0.8607788,0.5532837c0.2042236,0.1187744,0.4462891,0.2508545,0.7192383,0.3901978  c0.2841187,0.1450806,0.6063232,0.2967529,0.9625854,0.4514771c0.2441406,0.1060791,0.505188,0.211853,0.7822266,0.3173828  c0.3284912,0.1251221,0.6740112,0.2483521,1.0476074,0.366394c0.2745361,0.086731,0.5612183,0.170105,0.8595581,0.2498169  c0.3641968,0.0973511,0.7449341,0.1881104,1.1437378,0.2703857c0.3007202,0.0620728,0.6084595,0.1206665,0.9284058,0.1716919  c0.4022827,0.064209,0.8237915,0.1153564,1.2557373,0.1583252c0.3352661,0.0333252,0.6762695,0.0618896,1.0290527,0.0802612  c0.378479,0.0196533,0.765686,0.0314331,1.1638794,0.0314331c0.0731812,0,0.1467896-0.0007935,0.2202759-0.0014648  c0.0235596-0.0002441,0.0472412-0.0002441,0.0707397-0.0004883c0.3712769-0.0046997,0.7235718-0.0377808,1.0859985-0.0557861  c0.5133057-0.0254517,1.0245361-0.053894,1.5199585-0.105896c0.4354858-0.0457764,0.8606567-0.1066895,1.2822266-0.1729126  c0.604187-0.0949097,1.1908569-0.21521,1.7661133-0.3520508c0.5186768-0.1233521,1.0256348-0.2631836,1.5205078-0.4205322  c0.8032837-0.2554932,1.5747681-0.5558472,2.3145752-0.9005737c2.0040894-0.9338989,3.7877197-2.1743164,5.3114014-3.7578735  c1.5185547-1.578186,2.6310425-3.3049927,3.4614868-5.0152588c0.3962402-0.8161011,0.7271729-1.6252441,1.0012207-2.4153442  c0.1888428-0.5443726,0.3588867-1.0808105,0.4985962-1.5983887c0.1732178-0.6414795,0.3081665-1.2526245,0.418457-1.8325195  c0.0891113-0.4683228,0.1622314-0.9129639,0.2184448-1.3278198c0.0805054-0.5936279,0.1316528-1.1225586,0.1630859-1.5772095  c0.0330811-0.4783325,0.0459595-0.8639526,0.0490723-1.1489258c0.0007935-0.074707,0.0023193-0.1586304,0.0021362-0.2183228  c0.4316406-0.3803711,1.5488281-1.378418,2.0839844-1.9633789c1.2578125-1.3745117,1.4658203-2.2333984,1.4853516-2.3266602  C43.1744995,14.5952759,43.1263428,14.4655151,43.0476074,14.354187z M38.3381958,14.026001L18.993103,33.3707886  c-0.0018311-0.0041504,0.000061-0.0087891-0.0018921-0.0128784c-0.0888672-0.1870117-0.2841797-0.300293-0.4931641-0.284668  c-0.0036011-0.0004883-0.1091309,0.0029297-0.2976685-0.019104l18.8729248-18.8726807  C37.3479004,14.1785278,37.7966309,14.1390381,38.3381958,14.026001z M29.5675049,12.7213745l-3.5220947,3.5221558  C26.7061768,14.6544189,27.9782715,13.3822632,29.5675049,12.7213745z M31.4483032,12.2546387  c0.2014771-0.0188599,0.4049072-0.0310059,0.6112671-0.0310059c0.1665649,0,0.3314209,0.0112915,0.4959717,0.0236816  l-6.9822388,6.9823608c-0.0125732-0.1651001-0.0254517-0.3303223-0.0254517-0.494812  c0-0.2061157,0.012146-0.4093628,0.0309448-0.6105957L31.4483032,12.2546387z M16.4810791,18.2467041l-3.4984131,3.4983521  c-0.0237427-0.013855-0.2859497-0.1757813-0.6383057-0.4614868l3.4359131-3.4359131  C16.0095215,17.9820557,16.239502,18.116394,16.4810791,18.2467041z M10.5634766,13.7236328  c0.0516968,0.0550537,0.1189575,0.1234741,0.1795654,0.1863403l-0.3970337,0.3970337  C10.414978,14.0631104,10.4915771,13.8695679,10.5634766,13.7236328z M10.1365967,15.930481l1.3190308-1.3190308  c0.1766968,0.1664429,0.3712769,0.3428955,0.5814209,0.5279541l-1.8686523,1.8686523  C10.1365356,16.6071167,10.130127,16.2546387,10.1365967,15.930481z M10.3520508,18.2384644l2.4523315-2.4522705  c0.1956787,0.1585083,0.4015503,0.3189697,0.6170654,0.4824829l-2.8002319,2.8002319  C10.5075073,18.8098145,10.4191284,18.532959,10.3520508,18.2384644z M11.1279907,19.9761353l3.1132202-3.1131592  c0.2143555,0.1490479,0.4345093,0.2971191,0.6640625,0.4456177l-3.2857056,3.2857056  C11.4506836,20.4099731,11.2873535,20.203064,11.1279907,19.9761353z M9.9619141,22.1445313  c0.0236206,0.0098267,0.0539551,0.0192261,0.0783691,0.0290527l-0.0585938,0.0585938  C9.9763794,22.2049561,9.9667969,22.1708984,9.9619141,22.1445313z M10.2854614,23.3424683l0.8344116-0.8344116  c0.380127,0.0862427,0.6861572,0.1422119,0.9265747,0.1732178l-1.4360962,1.4360352  C10.4815674,23.8537598,10.3737793,23.5953979,10.2854614,23.3424683z M11.1523438,25.0356445  c-0.0068359-0.0093384-0.0109863-0.0192261-0.0177002-0.0285645l6.2852783-6.2851563  c0.2483521,0.1191406,0.5064697,0.2313232,0.7658081,0.3435059l-6.5509644,6.5509033  C11.4716187,25.4317627,11.3077393,25.24823,11.1523438,25.0356445z M12.3381958,26.3269653l6.8573608-6.8572998  c0.2675171,0.0993042,0.5355835,0.1974487,0.8131104,0.2870483l-7.0615234,7.0616455  C12.746521,26.671814,12.5443115,26.5097046,12.3381958,26.3269653z M21.1004639,20.0790405  c0.2955322,0.0765991,0.6022339,0.1384888,0.9076538,0.2019653l-7.4581299,7.458313  c-0.2104492-0.0882568-0.4572144-0.2022705-0.74646-0.3632813L21.1004639,20.0790405z M12.7421875,29.1269531  c0.1213989,0.0043945,0.2582397,0.0075684,0.411438,0.0087891l-0.2684326,0.2684326  C12.8369751,29.3108521,12.7793579,29.2098999,12.7421875,29.1269531z M13.4345703,30.2687988l1.2178955-1.2178955  c0.3049316-0.0511475,0.5302124-0.1236572,0.6541748-0.2193604c0.1513672-0.1166992,0.2216797-0.309082,0.1835938-0.4960938  c-0.0062866-0.0307617-0.0303345-0.0518799-0.0419922-0.0803223l7.7670288-7.7672119  c0.3250122,0.0454712,0.6540527,0.0826416,0.9887695,0.1110229L13.9529419,30.8502197  C13.7556763,30.6561279,13.5836182,30.4605103,13.4345703,30.2687988z M14.7234497,31.4937134l19.0391846-19.0394287  c0.2819824,0.0762939,0.5579834,0.1702271,0.826416,0.2837524L15.395874,31.9308472  C15.1793823,31.7977295,14.9595947,31.6599731,14.7234497,31.4937134z M16.3018188,32.4390259l19.2166138-19.2163696  c0.2212524,0.1395874,0.4345703,0.2930908,0.6394653,0.460144L17.0751343,32.7653198  C16.8407593,32.6801758,16.5888062,32.5791016,16.3018188,32.4390259z M9.9785156,36.9404297  c0.1357422-0.0078125,0.2958374-0.0235596,0.4421387-0.0344238l-0.1652832,0.1652832  C10.164917,37.027832,10.0621338,36.9825439,9.9785156,36.9404297z M11.2381592,37.5025635l0.7654419-0.7653809  c0.4346313-0.0620728,0.8803711-0.1366577,1.3334351-0.2338867l-1.2980957,1.2980957  C11.7565308,37.7025146,11.4886475,37.6036377,11.2381592,37.5025635z M13.1138916,38.140564l2.2093506-2.2093506  c0.8137817-0.2915649,1.4812012-0.6013184,2.0022583-0.8928223l-3.3301392,3.3300781  C13.6896973,38.2963257,13.3963013,38.2211304,13.1138916,38.140564z M15.170166,38.6077271l25.3572998-25.3569336  c0.0784302-0.0379639,0.1665039-0.0776978,0.2371826-0.1140747c-0.1279297,0.2167969-0.3076172,0.4580078-0.5576172,0.7148438  c-0.7890625,0.8081055-1.4931641,1.5664063-1.4931641,1.5664063c-0.1210938,0.1298828-0.1640625,0.3139648-0.1123047,0.4838867  c0.0269775,0.09021,0.0803833,0.1661377,0.1481934,0.2267456l-22.62854,22.6281738  C15.7918701,38.715271,15.4807739,38.6618652,15.170166,38.6077271z M17.4119263,38.880127L40.184082,16.1082764  c0.2105103-0.0491333,0.4406128-0.1083984,0.6948242-0.180542c0.2060547-0.0585938,0.4033203-0.1235352,0.5878906-0.190918  c-0.1494141,0.1958008-0.3291016,0.4125977-0.5449219,0.6484375c-0.5537109,0.605957-1.8496094,1.75-2.1240234,1.9907227  c-0.140625,0.0927734-0.2294922,0.2539063-0.2246094,0.4301758c0.0001831,0.006958-0.0001221,0.0152588,0.000061,0.0222778  L18.4906616,38.9107666C18.1257324,38.9060059,17.7598877,38.9021606,17.4119263,38.880127z M33.0429688,33.4638672  c-0.4804726,0.4993286-0.9940186,0.9558716-1.5267944,1.3872681l2.4912109-2.491333  C33.7029419,32.7366333,33.3859863,33.1074219,33.0429688,33.4638672z M36.3747559,28.5783081l-8.498291,8.4985352  c-0.581543,0.2642822-1.1838989,0.4998169-1.8069458,0.7070313l11.0952148-11.0953979  C36.9353638,27.3164063,36.6741943,27.9489746,36.3747559,28.5783081z M37.8130493,24.6260986L24.1143188,38.3250122  c-0.4524536,0.1015625-0.9094849,0.1963501-1.3806763,0.2713013l15.4089355-15.4091187  C38.0491333,23.6557007,37.9429932,24.1340332,37.8130493,24.6260986z M38.4180298,21.4976196L21.1028442,38.8131104  c-0.3766479,0.0341187-0.7721558,0.0405884-1.1595459,0.059082l18.5935669-18.5932617  C38.5116577,20.661438,38.4711304,21.0706787,38.4180298,21.4976196z"/></svg>